<?xml version="1.0" standalone="no"?>
<!DOCTYPE svg
        PUBLIC "-//W3C//DTD SVG 1.1//EN"
        "http://www.w3.org/Graphics/SVG/1.1/DTD/svg11.dtd"><svg class="icon" width="200px" height="200.00px" viewBox="0 0 1024 1024" version="1.1" xmlns="http://www.w3.org/2000/svg"><path fill="#000000" d="M768 384q52.010667 0 89.984 38.016t38.016 89.984l0 66.005333q0 34.005333-25.002667 59.008t-59.008 25.002667-57.984-24.021333l-91.989333-91.989333-91.989333 91.989333q-24.021333 24.021333-59.008 24.021333t-59.008-24.021333l-89.984-91.989333-91.989333 91.989333q-24.021333 24.021333-57.984 24.021333t-59.008-25.002667-25.002667-59.008l0-66.005333q0-52.010667 38.016-89.984t89.984-38.016l214.016 0 0-86.016 84.010667 0 0 86.016 214.016 0zM708.010667 681.984q43.989333 43.989333 104.021333 43.989333 43.989333 0 84.010667-25.984l0 196.010667q0 18.005333-11.989333 29.994667t-29.994667 11.989333l-683.989333 0q-18.005333 0-29.994667-11.989333t-11.989333-29.994667l0-196.010667q38.016 25.984 84.010667 25.984 59.989333 0 104.021333-43.989333l45.994667-45.994667 45.994667 45.994667q41.984 41.984 104.021333 41.984t104.021333-41.984l45.994667-45.994667zM512 256q-34.005333 0-59.989333-25.984t-25.984-59.989333q0-22.016 13.994667-43.989333l72.021333-125.994667 72.021333 125.994667q13.994667 22.016 13.994667 43.989333 0 34.005333-25.002667 59.989333t-61.013333 25.984z"  /></svg>